<?xml version="1.0" encoding="UTF-8" standalone="no"?>
<svg
   xmlns:dc="http://purl.org/dc/elements/1.1/"
   xmlns:cc="http://creativecommons.org/ns#"
   xmlns:rdf="http://www.w3.org/1999/02/22-rdf-syntax-ns#"
   xmlns:svg="http://www.w3.org/2000/svg"
   xmlns="http://www.w3.org/2000/svg"
   xmlns:sodipodi="http://sodipodi.sourceforge.net/DTD/sodipodi-0.dtd"
   xmlns:inkscape="http://www.inkscape.org/namespaces/inkscape"
   width="32"
   height="32"
   version="1.1"
   id="svg12"
   sodipodi:docname="clock-sand.svg"
   inkscape:version="0.92.3 (2405546, 2018-03-11)">
  <metadata
     id="metadata18">
    <rdf:RDF>
      <cc:Work
         rdf:about="">
        <dc:format>image/svg+xml</dc:format>
        <dc:type
           rdf:resource="http://purl.org/dc/dcmitype/StillImage" />
      </cc:Work>
    </rdf:RDF>
  </metadata>
  <defs
     id="defs16" />
  <sodipodi:namedview
     pagecolor="#ffffff"
     bordercolor="#666666"
     borderopacity="1"
     objecttolerance="10"
     gridtolerance="10"
     guidetolerance="10"
     inkscape:pageopacity="0"
     inkscape:pageshadow="2"
     inkscape:window-width="1539"
     inkscape:window-height="845"
     id="namedview14"
     showgrid="false"
     inkscape:zoom="9.1904218"
     inkscape:cx="5.9183498"
     inkscape:cy="24.22739"
     inkscape:window-x="61"
     inkscape:window-y="27"
     inkscape:window-maximized="1"
     inkscape:current-layer="svg12" />
  <circle
     r="14.057356"
     cy="16.367865"
     cx="16.489641"
     id="circle830"
     style="opacity:1;fill:#4d4d4d;fill-opacity:1;stroke:none;stroke-width:0.65264618;stroke-miterlimit:4;stroke-dasharray:none" />
  <circle
     style="opacity:1;fill:#ffffff;fill-opacity:1;stroke:#cccccc;stroke-width:0.64254278;stroke-miterlimit:4;stroke-dasharray:none"
     id="path828"
     cx="16"
     cy="16"
     r="13.839738" />
  <g
     id="g5">
    <title
       id="title2">background</title>
    <rect
       fill="none"
       id="canvas_background"
       height="402"
       width="582"
       y="-1"
       x="-1" />
  </g>
  <g
     id="g10"
     transform="matrix(0.43502825,0,0,0.43502825,9.039548,9.039548)"
     style="fill:#666666">
    <title
       id="title7">Layer 1</title>
    <path
       id="svg_2"
       d="m 26,2 h 2 V 0 H 4 V 2 H 6 V 4 H 6.953 C 5.5,7.947 6.75,12.416 10.111,14.998 c 0.521,0.399 1.082,0.721 1.656,1.002 -0.574,0.28 -1.136,0.603 -1.656,1.002 C 6.75,19.582 5.5,24.053 6.953,28 H 6 v 2 H 4 v 2 H 28 V 30 H 26 V 28 H 25.047 C 26.5,24.053 25.25,19.582 21.893,17.002 21.372,16.603 20.811,16.28 20.237,16 20.811,15.719 21.374,15.397 21.893,14.998 25.25,12.418 26.5,7.949 25.047,4 H 26 Z m -2.922,2.385 c 1.332,3.201 0.344,6.914 -2.406,9.027 -0.813,0.622 -1.723,1.041 -2.672,1.297 v 2.582 c 0.949,0.256 1.859,0.672 2.672,1.297 2.75,2.112 3.738,5.826 2.406,9.025 L 22.918,28 H 20.883 C 21.225,26.321 20.707,24.521 19.367,23.301 18.676,22.676 17.855,22.282 17,22.11 v -8.191 c 1.186,-0.178 2.332,-0.653 3.313,-1.459 0.832,-0.682 1.441,-1.531 1.863,-2.457 H 9.827 c 0.42,0.926 1.031,1.775 1.859,2.457 0.979,0.806 2.129,1.281 3.313,1.459 v 8.191 c -0.854,0.175 -1.676,0.566 -2.362,1.191 C 11.292,24.524 10.78,26.322 11.12,28 H 9.083 L 8.923,27.613 C 7.589,24.414 8.577,20.7 11.329,18.588 c 0.812,-0.625 1.726,-1.041 2.67,-1.299 v -2.58 C 13.055,14.453 12.143,14.034 11.329,13.412 8.577,11.299 7.589,7.586 8.923,4.385 L 9.083,4 h 13.834 z"
       inkscape:connector-curvature="0"
       style="fill:#666666" />
  </g>
</svg>
